<svg width="96" height="96" viewBox="0 0 96 96" fill="none" xmlns="http://www.w3.org/2000/svg" role="img" aria-labelledby="title desc">
  <title id="title">Grid Tactics</title>
  <desc id="desc">Diagonal tactical path across a grid</desc>

  <rect x="8" y="8" width="80" height="80" rx="22" fill="#1E1B4B"/>
  <rect x="8" y="8" width="80" height="80" rx="22" stroke="#4338CA" stroke-opacity="0.5" stroke-width="2"/>

  <rect x="22" y="22" width="52" height="52" rx="11" fill="#312E81" stroke="#6366F1" stroke-opacity="0.35" stroke-width="1.5"/>

  <g fill="#4338CA" fill-opacity="0.55">
    <rect x="26" y="26" width="12" height="12" rx="3"/>
    <rect x="42" y="26" width="12" height="12" rx="3"/>
    <rect x="58" y="26" width="12" height="12" rx="3"/>
    <rect x="26" y="42" width="12" height="12" rx="3"/>
    <rect x="42" y="42" width="12" height="12" rx="3"/>
    <rect x="58" y="42" width="12" height="12" rx="3"/>
    <rect x="26" y="58" width="12" height="12" rx="3"/>
    <rect x="42" y="58" width="12" height="12" rx="3"/>
    <rect x="58" y="58" width="12" height="12" rx="3"/>
  </g>

  <rect x="26" y="26" width="12" height="12" rx="3" fill="#FACC15"/>
  <rect x="42" y="42" width="12" height="12" rx="3" fill="#22D3EE"/>
  <rect x="58" y="58" width="12" height="12" rx="3" fill="#FB7185"/>

  <path d="M32 32L64 64" stroke="#FFFFFF" stroke-opacity="0.35" stroke-width="2" stroke-linecap="round" stroke-dasharray="2 4"/>
  <circle cx="32" cy="32" r="2.5" fill="#FFFFFF"/>
  <circle cx="64" cy="64" r="2.5" fill="#FFFFFF"/>
</svg>
