<svg width="96" height="96" viewBox="0 0 96 96" fill="none" xmlns="http://www.w3.org/2000/svg" role="img" aria-labelledby="title desc">
  <title id="title">Grid Tactics</title>
  <desc id="desc">Minimal 3x3 grid with active cell marker</desc>
  <defs>
    <linearGradient id="accent" x1="34" y1="30" x2="62" y2="58" gradientUnits="userSpaceOnUse">
      <stop stop-color="#22D3EE"/>
      <stop offset="1" stop-color="#2563EB"/>
    </linearGradient>
  </defs>

  <rect x="8" y="8" width="80" height="80" rx="24" fill="#0F172A"/>
  <rect x="8" y="8" width="80" height="80" rx="24" stroke="#334155" stroke-width="2"/>

  <rect x="24" y="24" width="48" height="48" rx="10" fill="#1E293B" stroke="#475569" stroke-width="1.5"/>

  <g fill="#334155">
    <rect x="28" y="28" width="12" height="12" rx="3"/>
    <rect x="42" y="28" width="12" height="12" rx="3"/>
    <rect x="56" y="28" width="12" height="12" rx="3"/>
    <rect x="28" y="42" width="12" height="12" rx="3"/>
    <rect x="56" y="42" width="12" height="12" rx="3"/>
    <rect x="28" y="56" width="12" height="12" rx="3"/>
    <rect x="42" y="56" width="12" height="12" rx="3"/>
    <rect x="56" y="56" width="12" height="12" rx="3"/>
  </g>

  <rect x="42" y="42" width="12" height="12" rx="3" fill="url(#accent)"/>
  <circle cx="48" cy="48" r="2.5" fill="#FFFFFF"/>

  <path d="M48 34V40M48 56V62M34 48H40M56 48H62" stroke="#38BDF8" stroke-opacity="0.55" stroke-width="2" stroke-linecap="round"/>
</svg>
