{
  "accessors": [
    {
      "bufferView": 2,
      "componentType": 5126,
      "count": 720,
      "max": [
        1.3993942737579346,
        2.869877338409424,
        4.696586608886719
      ],
      "min": [
        -1.3993942737579346,
        -1.015953540802002,
        -4.696586608886719
      ],
      "type": "VEC3"
    },
    {
      "bufferView": 2,
      "byteOffset": 8640,
      "componentType": 5126,
      "count": 720,
      "max": [
        0.999431848526001,
        1,
        0.7591034770011902
      ],
      "min": [
        -0.999431848526001,
        -0.9999945163726807,
        -0.7591034770011902
      ],
      "type": "VEC3"
    },
    {
      "bufferView": 1,
      "componentType": 5126,
      "count": 720,
      "max": [
        0.75,
        0.625
      ],
      "min": [
        0.25,
        0.375
      ],
      "type": "VEC2"
    },
    {
      "bufferView": 0,
      "componentType": 5125,
      "count": 1608,
      "type": "SCALAR"
    },
    {
      "bufferView": 2,
      "byteOffset": 17280,
      "componentType": 5126,
      "count": 1876,
      "max": [
        0.8976120948791504,
        0.7586709260940552,
        -2.720151901245117
      ],
      "min": [
        0.23080992698669434,
        0.37418627738952637,
        -4.011281490325928
      ],
      "type": "VEC3"
    },
    {
      "bufferView": 2,
      "byteOffset": 39792,
      "componentType": 5126,
      "count": 1876,
      "max": [
        0.7927421927452087,
        0.9136894345283508,
        0.8908342123031616
      ],
      "min": [
        -0.792740523815155,
        -0.9136894345283508,
        -0.8908366560935974
      ],
      "type": "VEC3"
    },
    {
      "bufferView": 1,
      "byteOffset": 5760,
      "componentType": 5126,
      "count": 1876,
      "max": [
        0.6141772270202637,
        0.45494115352630615
      ],
      "min": [
        0.5736042857170105,
        0.39561665058135986
      ],
      "type": "VEC2"
    },
    {
      "bufferView": 0,
      "byteOffset": 6432,
      "componentType": 5125,
      "count": 3462,
      "type": "SCALAR"
    },
    {
      "bufferView": 2,
      "byteOffset": 62304,
      "componentType": 5126,
      "count": 2042,
      "max": [
        0.8976120948791504,
        0.7586709260940552,
        -2.720151901245117
      ],
      "min": [
        0.23080992698669434,
        0.37418627738952637,
        -4.011281490325928
      ],
      "type": "VEC3"
    },
    {
      "bufferView": 2,
      "byteOffset": 86808,
      "componentType": 5126,
      "count": 2042,
      "max": [
        0.7927421927452087,
        0.9136894345283508,
        0.8908342123031616
      ],
      "min": [
        -0.792740523815155,
        -0.9136894345283508,
        -0.8908366560935974
      ],
      "type": "VEC3"
    },
    {
      "bufferView": 1,
      "byteOffset": 20768,
      "componentType": 5126,
      "count": 2042,
      "max": [
        0.6141772270202637,
        0.45494115352630615
      ],
      "min": [
        0.5736042857170105,
        0.39561665058135986
      ],
      "type": "VEC2"
    },
    {
      "bufferView": 0,
      "byteOffset": 20280,
      "componentType": 5125,
      "count": 3924,
      "type": "SCALAR"
    },
    {
      "bufferView": 3,
      "componentType": 5126,
      "count": 28,
      "type": "VEC3",
      "min": [
        0.053342386422709616,
        0.353983982217989,
        -4.061135775065807
      ],
      "max": [
        0.9267434502405958,
        0.764983982217989,
        -2.681135775065808
      ]
    },
    {
      "bufferView": 4,
      "componentType": 5126,
      "count": 28,
      "type": "VEC3",
      "min": [
        0.7927393383983653,
        -0.40640711280439473,
        -0.4543100263231247
      ],
      "max": [
        0.7927393383983653,
        -0.40640711280439473,
        -0.4543100263231247
      ]
    },
    {
      "bufferView": 5,
      "componentType": 5126,
      "count": 28,
      "type": "VEC2",
      "min": [
        0,
        0
      ],
      "max": [
        1,
        1
      ]
    },
    {
      "bufferView": 6,
      "componentType": 5123,
      "count": 78,
      "type": "SCALAR",
      "min": [
        0
      ],
      "max": [
        27
      ]
    }
  ],
  "asset": {
    "extras": {
      "author": "sherpa.thomas (https://sketchfab.com/sherpa.thomas)",
      "license": "CC-BY-4.0 (http://creativecommons.org/licenses/by/4.0/)",
      "source": "https://sketchfab.com/3d-models/ss-georgie-886b318b03104f3694304654117e125e",
      "title": "S.S. Georgie"
    },
    "generator": "Sketchfab-12.68.0",
    "version": "2.0"
  },
  "bufferViews": [
    {
      "buffer": 0,
      "byteLength": 35976,
      "name": "floatBufferViews",
      "target": 34963
    },
    {
      "buffer": 0,
      "byteLength": 37104,
      "byteOffset": 35976,
      "byteStride": 8,
      "name": "floatBufferViews",
      "target": 34962
    },
    {
      "buffer": 0,
      "byteLength": 111312,
      "byteOffset": 73080,
      "byteStride": 12,
      "name": "floatBufferViews",
      "target": 34962
    },
    {
      "buffer": 0,
      "byteOffset": 184392,
      "byteLength": 336,
      "target": 34962
    },
    {
      "buffer": 0,
      "byteOffset": 184728,
      "byteLength": 336,
      "target": 34962
    },
    {
      "buffer": 0,
      "byteOffset": 185064,
      "byteLength": 224,
      "target": 34962
    },
    {
      "buffer": 0,
      "byteOffset": 185288,
      "byteLength": 156,
      "target": 34963
    }
  ],
  "buffers": [
    {
      "byteLength": 185444,
      "uri": "scene.bin"
    }
  ],
  "materials": [
    {
      "doubleSided": true,
      "name": "Material",
      "pbrMetallicRoughness": {
        "baseColorFactor": [
          0.8,
          0.671548,
          0.0616915,
          1
        ],
        "metallicFactor": 0.492647,
        "roughnessFactor": 0.752941
      }
    },
    {
      "doubleSided": true,
      "name": "Material.001",
      "pbrMetallicRoughness": {
        "baseColorFactor": [
          0,
          0,
          0,
          1
        ],
        "metallicFactor": 0,
        "roughnessFactor": 0.5
      }
    }
  ],
  "meshes": [
    {
      "name": "Object_0",
      "primitives": [
        {
          "attributes": {
            "NORMAL": 1,
            "POSITION": 0,
            "TEXCOORD_0": 2
          },
          "indices": 3,
          "material": 0,
          "mode": 4
        }
      ]
    },
    {
      "name": "Object_1",
      "primitives": [
        {
          "attributes": {
            "NORMAL": 5,
            "POSITION": 4,
            "TEXCOORD_0": 6
          },
          "indices": 7,
          "material": 1,
          "mode": 4
        }
      ]
    },
    {
      "name": "Object_2",
      "primitives": [
        {
          "attributes": {
            "NORMAL": 9,
            "POSITION": 8,
            "TEXCOORD_0": 10
          },
          "indices": 11,
          "material": 1,
          "mode": 4
        }
      ]
    },
    {
      "name": "Letter_Hole_Patch",
      "primitives": [
        {
          "attributes": {
            "NORMAL": 13,
            "POSITION": 12,
            "TEXCOORD_0": 14
          },
          "indices": 15,
          "material": 0,
          "mode": 4
        }
      ]
    }
  ],
  "nodes": [
    {
      "children": [
        1
      ],
      "matrix": [
        1,
        0,
        0,
        0,
        0,
        2.220446049250313e-16,
        -1,
        0,
        0,
        1,
        2.220446049250313e-16,
        0,
        0,
        0,
        0,
        1
      ],
      "name": "Sketchfab_model"
    },
    {
      "children": [
        2
      ],
      "name": "root"
    },
    {
      "children": [
        3
      ],
      "matrix": [
        1,
        0,
        0,
        0,
        0,
        2.220446049250313e-16,
        1,
        0,
        0,
        -1,
        2.220446049250313e-16,
        0,
        0,
        0,
        0,
        1
      ],
      "name": "GLTF_SceneRootNode"
    },
    {
      "children": [
        4,
        8
      ],
      "matrix": [
        1,
        0,
        0,
        0,
        0,
        1,
        0,
        0,
        0,
        0,
        1,
        0,
        0,
        1.0021759271621704,
        0,
        1
      ],
      "name": "Cube_0"
    },
    {
      "mesh": 0,
      "name": "Object_4"
    },
    {
      "mesh": 1,
      "name": "Object_5"
    },
    {
      "children": [
        7
      ],
      "matrix": [
        1,
        0,
        0,
        0,
        0,
        1,
        0,
        0,
        0,
        0,
        1,
        0,
        0,
        1.0021759271621704,
        0,
        1
      ],
      "name": "Cube.001_1"
    },
    {
      "mesh": 2,
      "name": "Object_7"
    },
    {
      "mesh": 3,
      "name": "Letter_Hole_Patch"
    }
  ],
  "scene": 0,
  "scenes": [
    {
      "name": "Sketchfab_Scene",
      "nodes": [
        0
      ]
    }
  ]
}